<?xml version="1.0" encoding="UTF-8" standalone="no"?><!DOCTYPE svg PUBLIC "-//W3C//DTD SVG 1.1//EN" "http://www.w3.org/Graphics/SVG/1.1/DTD/svg11.dtd"><svg width="100%" height="100%" viewBox="0 0 489 133" version="1.1" xmlns="http://www.w3.org/2000/svg" xmlns:xlink="http://www.w3.org/1999/xlink" xml:space="preserve" xmlns:serif="http://www.serif.com/" style="fill-rule:evenodd;clip-rule:evenodd;stroke-linejoin:round;stroke-miterlimit:2;"><rect id="Artboard1" x="0" y="0" width="489" height="132.48" style="fill:none;"/><g id="Layer-1" serif:id="Layer 1"><path d="M60.948,65.07c-1.527,1.798 -6.27,7.503 -7.681,10.581c-1.405,3.066 0.08,4.604 6.705,1.264c-0.329,3.743 -0.498,7.083 -0.498,10.029c0,14.951 4.402,20.637 15.317,20.637c4.31,-0 8.438,-2.109 12.29,-6.421c3.852,-4.31 7.062,-8.896 9.722,-13.941c2.66,-5.044 3.944,-7.888 3.944,-8.438l0.917,-2.935c0.459,-1.467 0.734,-2.659 0.734,-3.669c0,-1.191 -0.367,-1.742 -1.192,-1.742c-2.018,-0 -4.678,4.769 -4.953,5.503c-4.494,9.447 -15.754,22.563 -18.986,22.563c-6.412,-0 -3.566,-19.958 -3.19,-22.563l0.81,-5.863c9.88,-9.659 15.953,-16.062 18.137,-25.021c0.624,-2.556 0.71,-5.712 0.584,-9.172c-0.469,-12.774 -26.109,-18.361 -29.314,4.51c-1.282,9.141 -2.823,17.283 -3.346,24.678m19.265,-25.73c7.137,-0 -1.888,13.802 -5.739,15.433c0.314,-2.234 1.397,-15.433 5.739,-15.433" style="fill:#483809;"/><path d="M158.346,78.414c0,-13.299 -2.751,-19.902 -8.346,-19.902c-1.743,0 -2.844,2.017 -3.394,5.962c-0.458,3.943 -0.734,7.52 -0.734,10.73l0,0.183l-0.091,8.438c0,8.164 0.55,14.951 1.559,20.362c1.101,5.412 3.21,8.163 6.42,8.163c2.294,0 5.319,-2.843 8.897,-8.53c3.577,-5.594 6.512,-11.097 8.805,-16.51l3.485,-8.346c2.477,3.578 7.154,6.146 11.648,6.146c1.193,0 2.385,-0.184 3.486,-0.55c3.944,-1.193 6.328,-4.954 6.328,-7.98c0,-1.468 -0.642,-2.751 -1.834,-2.751c-1.101,0 -2.935,0.917 -5.595,2.751c-0.642,0.458 -1.467,0.733 -2.293,0.733c-3.21,0 -6.145,-3.852 -6.145,-8.346c0,-0.275 0.091,-0.917 0.183,-1.742c1.926,-5.044 2.661,-6.971 2.661,-9.081c0,-0.825 -0.093,-1.65 -0.368,-2.292c-0.825,-2.385 -3.21,-3.578 -7.154,-3.578c-4.494,0 -7.429,2.935 -8.438,7.338c-0.275,1.192 -0.459,2.293 -0.459,3.302c0,0.642 0.092,1.743 0.367,3.21c0.459,2.293 1.285,4.219 2.293,5.778l-5.136,12.474c-3.302,7.979 -5.778,11.923 -7.429,11.923c0,-0.276 0.183,-2.11 0.642,-5.503c0.458,-3.393 0.642,-7.521 0.642,-12.382" style="fill:#483809;fill-rule:nonzero;"/><path d="M223.742,73.829c0,-5.778 -1.193,-10.089 -3.486,-12.933c-2.293,-2.843 -4.861,-4.769 -7.704,-5.686c-2.843,-1.009 -4.219,-1.284 -4.219,-0.918c-3.027,-0 -5.779,0.184 -8.071,0.642c-2.293,0.368 -3.486,1.193 -3.486,2.569c0,1.376 0.734,1.834 0.917,1.834c0,-0.275 -0.55,0.734 -1.651,3.027c-1.008,2.293 -2.017,5.319 -2.843,8.897c-0.825,3.577 -1.284,7.704 -1.284,12.382c-0.275,14.491 10.456,18.802 14.859,18.802c3.76,-0 12.107,-3.944 15.5,-16.326l0.092,-0c7.429,-0 12.749,-4.586 15.684,-9.264c1.559,-2.292 2.201,-3.576 2.017,-3.76c0.275,-0.458 0.918,-2.384 0.918,-3.761c0,-0.733 -0.276,-1.192 -0.734,-1.376l-0.367,-0.09c-1.1,-0 -2.017,1.833 -2.017,2.2c-1.927,5.503 -5.962,8.255 -11.007,8.255c-1.192,-0 -2.293,-0.092 -3.302,-0.367c0.092,-1.743 0.184,-3.118 0.184,-4.127m-17.06,-12.291c0.367,-0.825 1.468,-1.742 3.668,-1.742c0.826,-0 1.559,1.375 2.293,4.035c0.734,2.66 1.193,5.687 1.376,9.172c-3.576,-3.027 -6.144,-7.062 -7.337,-11.465m6.512,22.563c-1.285,5.778 -3.669,8.622 -7.246,8.622c-0.734,-0 -1.467,-1.651 -1.467,-6.787c0,-2.568 0.091,-5.503 0.366,-8.713c1.927,2.934 4.77,5.227 8.347,6.878" style="fill:#483809;fill-rule:nonzero;"/><path d="M247.405,81.625c1.009,-6.145 1.467,-10.548 1.467,-13.391c0,-2.384 -0.916,-4.311 -2.843,-5.687c-1.834,-1.376 -3.852,-2.109 -5.962,-2.109c-1.834,-0 -3.302,0.55 -3.944,1.651c-1.008,1.559 -3.485,14.217 -3.485,23.755c0,10.731 2.66,18.344 9.356,18.344c5.411,-0 9.997,-1.835 13.757,-5.596c3.76,-3.759 6.696,-7.704 8.622,-12.014c2.018,-4.311 3.026,-6.879 3.026,-7.613c-0.182,0.734 -1.375,6.787 -1.375,12.474c0,7.979 2.11,13.758 8.071,13.758c6.788,0.55 17.426,-16.143 21.095,-26.048c1.193,-2.936 2.201,-7.154 2.201,-9.631c0,-1.467 -0.458,-2.201 -1.284,-2.201c-1.283,-0 -3.026,2.292 -5.136,6.879c-2.384,4.953 -4.769,9.355 -7.246,13.115c-2.476,3.761 -4.402,5.595 -5.961,5.595c-1.009,-0 -1.559,-2.11 -1.559,-6.42c0,-1.742 0.092,-4.953 0.367,-9.447c0.274,-4.769 0.366,-8.255 0.366,-10.364c0,-4.769 -1.834,-7.154 -5.595,-7.154c-1.925,-0 -3.944,0.733 -4.677,1.192c-0.735,0.367 -1.927,2.751 -4.219,7.98c-5.595,12.199 -10.089,20.819 -15.134,23.479c-0.092,0.092 -0.183,0.092 -0.275,0.092c-0.459,-0 -0.642,-0.641 -0.642,-1.834c0,-1.559 0.367,-4.494 1.009,-8.805" style="fill:#483809;fill-rule:nonzero;"/><path d="M295.925,74.654l2.293,1.834l0.092,-0.091c1.558,2.567 2.293,4.952 2.293,7.245c-0,1.926 -1.193,4.219 -4.128,10.089c-3.576,6.695 -5.503,11.006 -5.503,14.4c-0,6.328 0.826,10.547 2.567,12.84c1.743,2.293 3.761,3.486 5.871,3.486c1.009,0 1.834,-0.184 1.926,-0.276c0.276,-0.091 2.385,-1.376 2.385,-4.036c-0,-0.458 -0,-0.825 -0.092,-1.1c-0.459,-1.651 -1.559,-2.843 -1.559,-5.594c-0,-1.102 0.734,-2.936 1.743,-4.861c1.559,-3.394 2.752,-6.605 3.577,-9.631c0.917,-3.027 1.376,-6.604 1.376,-10.914c-0,-6.971 -2.478,-12.75 -6.513,-19.353c1.743,-4.77 2.659,-10.089 2.659,-16.051c-0,-4.861 -2.017,-7.245 -5.961,-7.245c-1.1,0 -2.843,0.275 -5.136,0.825c-1.101,0.275 -1.926,0.458 -2.569,0.458c-1.467,0 -2.475,1.101 -3.118,3.211c-0.641,2.109 -1.009,4.035 -1.009,5.594c-0,5.595 2.477,9.54 7.246,15.684c0.459,0.459 1.009,1.193 1.743,2.201l-0.183,1.285Zm2.018,-13.667c-0.826,-1.742 -1.193,-3.21 -1.193,-4.493c-0,-3.027 0.276,-4.495 0.734,-4.495c0.459,0 0.917,1.376 0.917,2.843c-0,1.468 -0.183,3.486 -0.458,6.145" style="fill:#483809;fill-rule:nonzero;"/><path d="M379.237,15.332c-1.732,0 -2.686,1.1 -2.686,1.467c-3.377,17.886 -5.803,32.102 -7.363,42.649c-1.472,10.456 -2.252,18.894 -2.252,25.406c0,14.951 4.158,20.637 14.467,20.637c4.07,0 7.969,-2.109 11.607,-6.421c3.638,-4.309 6.67,-8.895 9.182,-13.941c2.513,-5.044 3.725,-7.887 3.725,-8.438l0.866,-2.935c0.433,-1.466 0.693,-2.659 0.693,-3.669c0,-1.191 -0.346,-1.741 -1.126,-1.741c-1.905,0 -4.418,4.769 -4.677,5.502c-4.245,9.447 -14.9,22.929 -17.931,22.563c-1.56,0 -2.339,-2.568 -2.339,-7.613c0,-3.852 0.433,-8.804 1.299,-14.95c1.472,-11.373 2.598,-20.361 3.292,-26.965c0.693,-6.604 1.039,-12.198 1.039,-16.876c0,-7.613 -1.126,-12.015 -3.379,-13.208c-1.818,-1.009 -3.29,-1.467 -4.417,-1.467" style="fill:#483809;fill-rule:nonzero;"/><path d="M412.836,43.398c-0,-1.467 -0.733,-2.751 -2.109,-2.751c-2.752,-0.275 -9.448,4.769 -9.172,6.512c-0,2.476 1.742,3.76 5.228,3.76c1.375,-0 2.659,-0.825 4.035,-2.476c1.376,-1.743 2.018,-3.393 2.018,-5.045m-6.42,12.015c-2.935,-0 -6.054,1.835 -6.328,4.311c-0.276,1.651 -2.844,15.134 -2.753,25.773c-0,11.832 2.568,17.702 7.613,17.702c4.861,-0 9.448,-2.11 13.666,-6.421c4.311,-4.311 7.889,-9.08 10.731,-14.124c2.844,-5.137 4.311,-7.98 4.311,-8.53c0.275,-0.643 1.284,-3.119 1.284,-4.678c-0,-1.192 -0.458,-1.742 -1.467,-1.742c-1.651,-0 -3.852,2.659 -4.128,3.118l-4.861,6.237c-2.476,3.211 -4.953,6.236 -7.521,9.172c-2.476,2.935 -4.035,4.402 -4.677,4.402c-1.192,-0 -1.559,-7.338 -1.559,-18.435l-0,-12.474c-0,-2.935 -1.744,-4.311 -4.311,-4.311" style="fill:#483809;fill-rule:nonzero;"/><path d="M462.57,75.683c0,-10.547 -4.77,-16.142 -14.584,-16.142c-3.576,-0 -6.603,2.017 -9.171,6.053c-1.559,-5.044 -4.494,-9.355 -8.806,-9.355c-3.026,-0 -5.594,2.384 -5.594,4.953c0,1.1 0.275,5.319 0.825,12.657c0.642,7.337 1.107,12.291 1.192,14.949c0.354,11.03 1.963,25.183 5.154,35.411c0.689,2.21 1.101,2.936 1.101,2.111c1.192,1.191 -0.732,1.742 1.011,1.742c3.577,-0 6.931,-2.762 7.613,-5.778c0.231,-1.017 0.366,-2.661 0.366,-4.769c0,-7.43 0.416,-10.187 0.164,-11.84c-0.111,-0.728 -0.091,-1.743 -0.091,-2.935c0.091,-0.092 0.367,-0.092 0.734,-0.092l2.567,0.092c6.512,-0 13.3,-2.202 20.454,-6.696c7.246,-4.494 13.208,-13.299 18.068,-26.415c0,-0.275 1.01,-2.934 1.01,-5.228c0,-1.192 -0.367,-2.017 -1.01,-2.293c-0.092,-0.091 -0.275,-0.091 -0.458,-0.091c-1.651,-0 -3.577,3.761 -3.944,4.402c0,0.276 -1.009,2.11 -3.027,5.596c-1.926,3.393 -4.494,7.153 -7.612,11.098c-3.119,3.943 -6.605,7.245 -10.364,9.997c2.934,-4.312 4.402,-10.089 4.402,-17.427m-11.74,-2.752c0,10.548 -1.376,15.959 -9.447,21.188c-0.459,-9.172 -0.917,-16.143 -1.376,-20.821c1.467,-3.669 3.852,-7.52 7.246,-7.52c2.384,-0 3.577,0.825 3.577,7.153" style="fill:#483809;fill-rule:nonzero;"/><path d="M344.017,70.683c9.253,0 13.216,-1.407 21.443,-5.308c0.624,-1.502 0.913,-2.774 0.87,-3.698c-0.057,-1.271 -0.63,-2.19 -1.739,-2.658c-4.178,-1.762 -14.722,-1.082 -21.28,-1.27l-0.245,-15.483c0.01,-4.854 -0.07,-9.128 -0.234,-12.71c-0.121,-2.659 -0.206,-4.507 -0.374,-5.663c12.464,-4.47 27.371,-2.678 29.19,-8.55c1.234,-3.983 -2.659,-5.084 -2.653,-4.969c-8.798,-2.889 -19.036,-4.39 -30.706,-4.39c-4.506,0 -5.544,0.577 -8.149,1.733c-3.445,0.462 -3.486,2.657 -3.817,3.004c0.033,3.235 -0.046,14.214 0.334,32.584c0.104,5.084 0.239,10.066 0.403,14.938c-6.792,0.168 -13.901,0.39 -14.056,2.345c-0.154,1.955 3.324,6.079 14.473,8.276l0.035,0.786c1.473,32.23 4.3,53.679 7.882,53.679c6.124,0 4.955,-4.05 6.775,-12.133c1.821,-8.081 2.277,-26.07 1.733,-40.513l0.115,0Z" style="fill:#483809;fill-rule:nonzero;"/><path d="M34.288,72.773c9.252,0 13.134,-1.408 21.137,-5.308c0.538,-1.503 0.754,-2.774 0.658,-3.698c-0.131,-1.271 -0.757,-2.19 -1.892,-2.658c-4.279,-1.763 -14.786,-1.083 -21.354,-1.271l-1.135,-15.483c-0.27,-4.853 -0.596,-9.127 -0.965,-12.71c-0.275,-2.658 -0.466,-4.507 -0.7,-5.662c12.207,-4.47 27.217,-2.678 28.697,-8.551c1.006,-3.983 -2.951,-5.083 -2.939,-4.968c-8.964,-2.889 -19.287,-4.39 -30.957,-4.39c-4.507,0 -5.512,0.577 -8.05,1.733c-3.419,0.462 -3.334,2.657 -3.645,3.004c0.219,3.235 0.771,14.214 2.208,32.584c0.398,5.084 0.819,10.066 1.264,14.938c-6.783,0.167 -13.879,0.389 -13.921,2.344c-0.042,1.955 3.673,6.08 14.948,8.277l0.082,0.786c3.326,32.229 7.387,53.679 10.969,53.679c6.124,0 4.723,-4.05 6.078,-12.133c1.355,-8.082 0.777,-26.07 -0.599,-40.513l0.116,0Z" style="fill:#483809;fill-rule:nonzero;"/><path d="M150,70.159c0,-1.467 -0.734,-2.751 -1.927,-2.751c-1.192,0 -2.476,1.559 -2.843,2.293l-3.118,5.228c-6.879,11.098 -11.465,16.693 -13.85,16.693c-0.367,0 -0.642,-1.376 -0.733,-4.219c-0.092,-2.844 -0.092,-8.53 -0.092,-17.244c0,-9.997 -5.87,-13.665 -8.438,-13.665l-0.825,0.091c-0.367,-0.366 -1.01,-0.551 -1.927,-0.551c-6.878,-0.091 -22.195,8.897 -21.737,28.525c0,10.639 3.118,11.19 6.695,11.19c2.018,0 4.22,-1.56 6.696,-4.77c2.476,-3.21 4.586,-7.337 6.42,-12.381c0,15.409 4.311,23.846 10.823,23.846c3.485,0 7.154,-2.475 11.098,-7.52c3.944,-5.045 7.704,-10.824 11.19,-17.336c0.366,-0.641 2.568,-4.585 2.568,-7.429m-46.868,16.143c-0.642,0 -1.009,-1.1 -1.009,-3.21c0,-7.797 4.494,-14.125 9.171,-18.161c2.385,-2.109 3.577,-3.026 3.577,-2.751c-0.091,0.184 -0.091,0.458 -0.091,0.826c-0.367,1.651 -1.377,4.402 -2.935,8.345c-1.56,3.853 -3.211,7.338 -4.953,10.365c-1.651,3.027 -2.935,4.586 -3.76,4.586" style="fill:#483809;fill-rule:nonzero;"/></g></svg>