<svg width="44" height="44" viewBox="0 0 44 44" fill="none" xmlns="http://www.w3.org/2000/svg">
<path d="M22 3.66666C11.88 3.66666 3.66663 11.88 3.66663 22C3.66663 32.12 11.88 40.3333 22 40.3333C32.12 40.3333 40.3333 32.12 40.3333 22C40.3333 11.88 32.12 3.66666 22 3.66666ZM23.8333 34.8333H20.1666V31.1667H23.8333V34.8333ZM27.6283 20.625L25.9783 22.3117C24.6583 23.65 23.8333 24.75 23.8333 27.5H20.1666V26.5833C20.1666 24.5667 20.9916 22.7333 22.3116 21.395L24.585 19.085C25.2633 18.425 25.6666 17.5083 25.6666 16.5C25.6666 14.4833 24.0166 12.8333 22 12.8333C19.9833 12.8333 18.3333 14.4833 18.3333 16.5H14.6666C14.6666 12.4483 17.9483 9.16666 22 9.16666C26.0516 9.16666 29.3333 12.4483 29.3333 16.5C29.3333 18.1133 28.6733 19.58 27.6283 20.625Z" fill="#D50002"/>
</svg>
